# xmcd
#
# Track frame offsets:
#	222
#	15945
#	28550
#	39290
#	64652
#	77490
#	87885
#	115302
#	126977
#	152277
#	161787
#	177957
#	196292
#	212080
#	225172
#	240387
#	254780
#	275590
#	299682
#
# Disc length: 4205 seconds
#
# Revision: 1
# Processed by: cddbd v1.4PL0 Copyright (c) Steve Scherf et al.
# Submitted via: audiograbber 1.81.03
#
DISCID=f8106b13
DTITLE=Various Artist - The Best Of The Chicago Blues
DYEAR=1987
DGENRE=Blues
TTITLE0=The Jimmy Cotton Blues Quartet - Love Me Or Leave Me
TTITLE1=Jimmy Cotton - Next Time You See Me
TTITLE2=Otis Spann's South Side Piano - Spann's Stomp
TTITLE3=Buddy Guy - One Room Country Shack
TTITLE4=J. B. Hutto And His Hawks - That's The Truth
TTITLE5=Homesick James And His Dusters - Somebody Been Talkin'
TTITLE6=Buddy Guy - I Had A Dream Last Night
TTITLE7=Junior Wells - When My Baby Left Me
TTITLE8=Buddy Guy - Sweet Little Angel
TTITLE9=The Jimmy Cotton Blues Quartet - Rocket 88
TTITLE10=Otis Spann - Mule Kicking In My Stall
TTITLE11=The Jimmy Cotton Blues Quartet - The Blues Keep Falling
TTITLE12=Big Walter Horton's Blues Harp Band With Memphis Charlie - Rockin' My 
TTITLE12=Boogie
TTITLE13=Otis Spann's South Side Piano - S. P. Blues
TTITLE14=Junior Wells - Five Long Years
TTITLE15=Junior Wells - Checking On My Baby
TTITLE16=Otis Spann - Some Day
TTITLE17=Johnny Young's South Side Blues Band - Stealin' Back
TTITLE18=Junior Wells - Tobacco Road
EXTD=
EXTT0=
EXTT1=
EXTT2=
EXTT3=
EXTT4=
EXTT5=
EXTT6=
EXTT7=
EXTT8=
EXTT9=
EXTT10=
EXTT11=
EXTT12=
EXTT13=
EXTT14=
EXTT15=
EXTT16=
EXTT17=
EXTT18=
PLAYORDER=
